<?xml version="1.0" encoding="utf-8"?>
<!-- Generator: Adobe Illustrator 25.4.1, SVG Export Plug-In . SVG Version: 6.00 Build 0)  -->
<svg version="1.1" id="Warstwa_1" xmlns="http://www.w3.org/2000/svg" xmlns:xlink="http://www.w3.org/1999/xlink" x="0px" y="0px"
	 viewBox="0 0 128 128" style="enable-background:new 0 0 128 128;" xml:space="preserve">
<style type="text/css">
	.st0{fill:#F9A825;}
	.st1{opacity:0.2;}
	.st2{fill:#424242;}
	.st3{fill:url(#SVGID_1_);}
	.st4{fill:none;}
</style>
<path class="st0" d="M65.4,19L77.7,4.7c1.1-1.3,3.3-0.7,3.6,1l3.6,18.6c0.2,1.2,1.5,2,2.7,1.6l17.9-6.2c1.7-0.6,3.2,1,2.7,2.6
	l-6.2,17.9c-0.4,1.2,0.3,2.5,1.6,2.7l18.6,3.6c1.7,0.3,2.3,2.5,1,3.6l-14.3,12.4c-1,0.8-1,2.3,0,3.1l14.3,12.4
	c1.3,1.1,0.7,3.3-1,3.6l-18.6,3.6c-1.2,0.2-2,1.5-1.6,2.7l6.2,17.9c0.6,1.7-1,3.2-2.7,2.7l-17.9-6.2c-1.2-0.4-2.5,0.3-2.7,1.6
	l-3.6,18.6c-0.3,1.7-2.5,2.3-3.6,1L65.4,109c-0.8-1-2.3-1-3.2,0l-12.4,14.3c-1.1,1.3-3.3,0.7-3.6-1l-3.6-18.6
	c-0.2-1.2-1.5-2-2.7-1.6l-17.9,6.2c-1.6,0.6-3.2-1-2.6-2.7l6.2-17.9c0.4-1.2-0.3-2.5-1.6-2.7L5.5,81.6c-1.7-0.3-2.3-2.5-1-3.6
	l14.3-12.4c1-0.8,1-2.3,0-3.2L4.5,50.1c-1.3-1.1-0.7-3.3,1-3.6L24,42.9c1.2-0.2,2-1.5,1.6-2.7l-6.2-17.9c-0.6-1.6,1-3.2,2.6-2.6
	l17.9,6.2c1.2,0.4,2.5-0.3,2.7-1.6l3.6-18.6c0.3-1.7,2.5-2.3,3.6-1L62.2,19C63,20,64.5,20,65.4,19z"/>
<g class="st1">
	<path class="st2" d="M78.8,8.1l3.2,16.7c0.5,2.4,2.6,4.1,5,4.1c0.6,0,1.1-0.1,1.7-0.3l16.1-5.6l-5.6,16.1c-0.5,1.4-0.3,2.9,0.4,4.2
		s2,2.2,3.4,2.5l16.7,3.2l-12.9,11.1c-1.1,1-1.8,2.4-1.8,3.8c0,1.5,0.6,2.9,1.8,3.8L119.7,79L103,82.2c-1.4,0.3-2.7,1.2-3.4,2.4
		s-0.9,2.8-0.4,4.2l5.6,16.1l-16.1-5.6c-0.5-0.2-1.1-0.3-1.7-0.3c-2.4,0-4.5,1.7-5,4.1l-3.2,16.7L67.6,107c-1-1.1-2.4-1.8-3.8-1.8
		s-2.9,0.6-3.8,1.8l-11.1,12.9l-3.2-16.7c-0.5-2.4-2.6-4.1-5-4.1c-0.6,0-1.1,0.1-1.7,0.3l-16.1,5.6l5.6-16.1
		c0.5-1.4,0.3-2.9-0.4-4.2s-2-2.2-3.5-2.4L7.9,79l12.9-11.1c1.1-1,1.8-2.4,1.8-3.8s-0.6-2.9-1.8-3.8L7.9,49l16.7-3.2
		c1.5-0.3,2.7-1.2,3.5-2.5s0.9-2.8,0.4-4.2l-5.6-16.1l16.1,5.6c0.5,0.2,1.1,0.3,1.7,0.3c2.4,0,4.5-1.7,5-4.1l3.2-16.7L59.9,21
		c1,1.1,2.4,1.8,3.8,1.8c1.5,0,2.9-0.6,3.8-1.8L78.8,8.1 M79.3,4c-0.6,0-1.1,0.2-1.6,0.7L65.4,19c-0.4,0.5-1,0.7-1.6,0.7
		s-1.2-0.2-1.6-0.7L49.8,4.7c-0.4-0.5-1-0.7-1.6-0.7c-0.9,0-1.8,0.6-2.1,1.7l-3.6,18.6c-0.2,1-1.1,1.7-2,1.7c-0.2,0-0.5,0-0.7-0.1
		l-17.9-6.2c-0.2-0.1-0.5-0.1-0.7-0.1c-1.4,0-2.5,1.4-2,2.8l6.2,17.9c0.4,1.2-0.3,2.5-1.6,2.7L5.5,46.4c-1.7,0.3-2.3,2.5-1,3.6
		l14.3,12.4c1,0.8,1,2.3,0,3.2L4.5,77.9c-1.3,1.1-0.7,3.3,1,3.6L24,85.1c1.2,0.2,2,1.5,1.6,2.7l-6.2,17.9c-0.5,1.4,0.6,2.8,2,2.8
		c0.2,0,0.5,0,0.7-0.1l17.9-6.2c0.2-0.1,0.5-0.1,0.7-0.1c1,0,1.8,0.7,2,1.7l3.6,18.6c0.2,1.1,1.1,1.7,2.1,1.7c0.6,0,1.1-0.2,1.6-0.7
		L62.2,109c0.4-0.5,1-0.7,1.6-0.7c0.6,0,1.2,0.2,1.6,0.7l12.4,14.3c0.4,0.5,1,0.7,1.6,0.7c0.9,0,1.8-0.6,2.1-1.7l3.6-18.6
		c0.2-1,1.1-1.7,2.1-1.7c0.2,0,0.5,0,0.7,0.1l17.9,6.2c0.2,0.1,0.5,0.1,0.7,0.1c1.4,0,2.4-1.4,2-2.8L102,87.8
		c-0.4-1.2,0.3-2.5,1.6-2.7l18.6-3.6c1.7-0.3,2.3-2.5,1-3.6l-14.3-12.4c-1-0.8-1-2.3,0-3.2l14.3-12.4c1.3-1.1,0.7-3.3-1-3.6
		l-18.6-3.6c-1.2-0.2-2-1.5-1.6-2.7l6.2-17.9c0.5-1.4-0.6-2.8-2-2.8c-0.2,0-0.5,0-0.7,0.1l-17.9,6.2C87.4,25.9,87.2,26,87,26
		c-1,0-1.8-0.7-2.1-1.7L81.3,5.7C81.1,4.6,80.2,4,79.3,4L79.3,4z"/>
</g>
<radialGradient id="SVGID_1_" cx="68.0035" cy="68.0197" r="39.3535" gradientTransform="matrix(0.9718 0 0 -0.9718 -8.2362 120.8625)" gradientUnits="userSpaceOnUse">
	<stop  offset="0.2173" style="stop-color:#FFD54F"/>
	<stop  offset="0.86" style="stop-color:#FFC107"/>
</radialGradient>
<circle class="st3" cx="64" cy="64" r="39"/>
<g class="st1">
	<circle class="st4" cx="64" cy="64" r="40.6"/>
</g>
</svg>
